<mxfile host="app.diagrams.net" modified="2024-02-14T11:41:35.112Z" agent="Mozilla/5.0 (Macintosh; Intel Mac OS X 10_15_7) AppleWebKit/537.36 (KHTML, like Gecko) Chrome/121.0.0.0 Safari/537.36" version="21.6.6" etag="_yYwgMhQ_ff0t1ywdldS" type="github">
  <diagram name="Page-1" id="X-Ikt2yS38_xHKI1-joO">
    <mxGraphModel>
      <root>
        <mxCell id="0" />
        <mxCell id="1" parent="0" />
      </root>
    </mxGraphModel>
  </diagram>
</mxfile>
